{"title":"Battlestar.Galactica.Blood.and.Chrome.3E4of10.1080p.WEB-Rip.x264","uid":7832386,"size":530365527,"categoryP":"video","categoryS":"hd___tv_shows","magnet":"?xt=urn:btih:4523d496f52d35ec66ab0b1792950f4440cc293e&amp;dn=Battlestar.Galactica.Blood.and.Chrome.3E4of10.1080p.WEB-Rip.x264&amp;tr=udp%3A%2F%2Ftracker.openbittorrent.com%3A80&amp;tr=udp%3A%2F%2Fopen.demonii.com%3A1337&amp;tr=udp%3A%2F%2Ftracker.coppersurfer.tk%3A6969&amp;tr=udp%3A%2F%2Fexodus.desync.com%3A6969","seeders":0,"leechers":0,"uploader":"junio_tk2","files":-1,"time":1353086747,"description":"Format                           : MPEG-4\nFormat profile                   : Base Media / Version 2\nCodec ID                         : mp42\nFile size                        : 506 MiB\nDuration                         : 17mn 25s\nOverall bit rate                 : 4 056 Kbps\nEncoded date                     : UTC 2012-11-15 03:12:34\nTagged date                      : UTC 2012-11-15 03:12:34\ngsst                             : 0\ngstd                             : 1046105\ngssd                             : BD075FFC4HH1353081743079371\ngshh                             :\n\nVideo\nID                               : 1\nFormat                           : AVC\nFormat/Info                      : Advanced Video Codec\nFormat profile                   : &lt;a class=&quot;__cf_email__&quot; href=&quot;/cdn-cgi/l/email-protection&quot; data-cfemail=&quot;1159787679515d253f21&quot;&gt;[email&amp;#160;protected]&lt;/a&gt;&lt;script cf-hash='f9e31' type=&quot;text/javascript&quot;&gt;\n/* &lt;![CDATA[ */!function(){try{var t=&quot;currentScript&quot;in document?document.currentScript:function(){for(var t=document.getElementsByTagName(&quot;script&quot;),e=t.length;e--;)if(t[e].getAttribute(&quot;cf-hash&quot;))return t[e]}();if(t&amp;&amp;t.previousSibling){var e,r,n,i,c=t.previousSibling,a=c.getAttribute(&quot;data-cfemail&quot;);if(a){for(e=&quot;&quot;,r=parseInt(a.substr(0,2),16),n=2;a.length-n;n+=2)i=parseInt(a.substr(n,2),16)^r,e+=String.fromCharCode(i);e=document.createTextNode(e),c.parentNode.replaceChild(e,c)}}}catch(u){}}();/* ]]&gt; */&lt;/script&gt;\nFormat settings, CABAC           : Yes\nFormat settings, ReFrames        : 1 frame\nCodec ID                         : avc1\nCodec ID/Info                    : Advanced Video Coding\nDuration                         : 17mn 25s\nBit rate mode                    : Variable\nBit rate                         : 3 862 Kbps\nMaximum bit rate                 : 11.1 Mbps\nWidth                            : 1 920 pixels\nHeight                           : 1 080 pixels\nDisplay aspect ratio             : 16:9\nFrame rate mode                  : Constant\nFrame rate                       : 23.976 fps\nColor space                      : YUV\nChroma subsampling               : 4:2:0\nBit depth                        : 8 bits\nScan type                        : Progressive\nBits/(Pixel*Frame)               : 0.078\nStream size                      : 482 MiB (95%)\nTagged date                      : UTC 2012-11-15 03:12:35\n\nAudio\nID                               : 2\nFormat                           : AAC\nFormat/Info                      : Advanced Audio Codec\nFormat profile                   : LC\nCodec ID                         : 40\nDuration                         : 17mn 25s\nBit rate mode                    : Variable\nBit rate                         : 192 Kbps\nMaximum bit rate                 : 201 Kbps\nChannel(s)                       : 2 channels\nChannel positions                : Front: L R\nSampling rate                    : 44.1 KHz\nCompression mode                 : Lossy\nStream size                      : 23.9 MiB (5%)","torrent":{"xt":"urn:btih:4523d496f52d35ec66ab0b1792950f4440cc293e","amp;dn":"Battlestar.Galactica.Blood.and.Chrome.3E4of10.1080p.WEB-Rip.x264","amp;tr":["udp%3A%2F%2Ftracker.openbittorrent.com%3A80","udp%3A%2F%2Fopen.demonii.com%3A1337","udp%3A%2F%2Ftracker.coppersurfer.tk%3A6969","udp%3A%2F%2Fexodus.desync.com%3A6969"],"infoHash":"4523d496f52d35ec66ab0b1792950f4440cc293e","infoHashBuffer":{"type":"Buffer","data":[69,35,212,150,245,45,53,236,102,171,11,23,146,149,15,68,64,204,41,62]},"announce":[],"urlList":[]}}